Simulation
nRows=32
nColumns=15
endheader
time  TH_x TH_y TH_z SC_y  SC_z  SC_x  AC_y  AC_z  AC_x  GH_y  GH_z  GH_yy  EL_x  PS_y
1.5  0.000000  0.000000  0.000000  -42.10711635448867  9.132195589259664  14.60729622391844  44.77144597075298  21.461543823925837  6.539435445207232  2.581790125177951  54.602574120505444  2.517080710816679  19.628453298052158  0.000000
1.53  0.000000  0.000000  0.000000  -41.91308100844075  8.938388356028144  14.18707066405372  44.75306954419522  21.41417101792588  6.285041120326122  2.4657719873525874  53.98916725247627  2.242486681930191  19.839945804639047  0.000000
1.56  0.000000  0.000000  0.000000  -41.6789719039232  8.70733535905097  13.687090230695224  44.74561252389984  21.3448057838597  5.992957149009344  2.321793310200955  53.19170047507654  1.8507956023327268  20.140861693382345  0.000000
1.5899999999999999  0.000000  0.000000  0.000000  -41.413704898771165  8.445197883070046  13.121463116417873  44.75241298083523  21.245919148915096  5.672310480181045  2.152672737495887  52.20022576163987  1.3479186205122111  20.541967061607817  0.000000
1.6199999999999999  0.000000  0.000000  0.000000  -41.12296352241081  8.158068477204953  12.499547614060077  44.774269557150525  21.10482432620609  5.328010400760345  1.9639326067572975  51.02159801992144  0.7492905381017865  21.054492860204203  0.000000
1.65  0.000000  0.000000  0.000000  -40.81176263152139  7.850826050339962  11.826179325798428  44.81103913270776  20.90697393558404  4.963418339237178  1.7612514781165993  49.67708942217132  0.07862974934927537  21.68701263916085  0.000000
1.68  0.000000  0.000000  0.000000  -40.47995975546412  7.525749150956104  11.101454008844819  44.86199409308761  20.640876529413426  4.583680148342273  1.546362718727817  48.19829485455558  -0.6351487155700314  22.437261872156867  0.000000
1.71  0.000000  0.000000  0.000000  -40.12635199633927  7.1850462821108625  10.327130505079074  44.928116885401714  20.296484896938406  4.1968918774326935  1.3165734798607704  46.62331888599969  -1.3583890224350528  23.284554880927825  0.000000
1.74  0.000000  0.000000  0.000000  -39.747433942419605  6.828085685226809  9.508099629270447  45.010731223706294  19.866088919944747  3.8092593103976613  1.066685934295685  44.99534602005127  -2.0549315216752495  24.192785648751304  0.000000
1.77  0.000000  0.000000  0.000000  -39.34010956558441  6.449894382031249  8.64851411336132  45.107732005642134  19.35255402600679  3.427203294770699  0.7912922574777216  43.35792525491905  -2.6886219439463757  25.114639016717707  0.000000
1.7999999999999998  0.000000  0.000000  0.000000  -38.90519702147747  6.050522442133407  7.756249113481163  45.21167859502485  18.7627183899436  3.060622155387643  0.4959073449641962  41.747575602965966  -3.2328137772459895  25.991221230272103  0.000000
1.8299999999999998  0.000000  0.000000  0.000000  -38.446638741131146  5.6334051567241445  6.850870892249163  45.31235475933782  18.104140356553  2.7128575350220694  0.19835496816498818  40.19301491165852  -3.6727886772790197  26.754903033108796  0.000000
1.8599999999999999  0.000000  0.000000  0.000000  -37.96685947979783  5.201101295377647  5.9564722336932805  45.399383666430104  17.388314334084896  2.3805019655531083  -0.08059090737786465  38.71585369101561  -4.005137604428406  27.34204216296922  0.000000
1.89  0.000000  0.000000  0.000000  -37.47162355509491  4.75821585622223  5.095765062153939  45.465521181320675  16.628872907809875  2.0599970990765115  -0.32890170502036986  37.32914704102119  -4.233839535647114  27.7131545023151  0.000000
1.92  0.000000  0.000000  0.000000  -36.96910593676284  4.310108811285149  4.2870026012971225  45.507453467426394  15.840351370155982  1.7490785195818281  -0.5490972865414004  36.037016217669084  -4.369063753893876  27.86637894682027  0.000000
1.95  0.000000  0.000000  0.000000  -36.47208769985505  3.8617004106942585  3.5430934867671557  45.527159488712016  15.038411461266534  1.4473231881518263  -0.7548094159144781  34.835828805361295  -4.42475700050332  27.827861588613466  0.000000
1.98  0.000000  0.000000  0.000000  -35.99408498722511  3.416816276102969  2.8730972446200864  45.5301014417925  14.238018703564505  1.1546723825250051  -0.9605070545324932  33.715721419355695  -4.419560708054997  27.632973070949596  0.000000
2.01  0.000000  0.000000  0.000000  -35.54793200459706  2.9789013181742066  2.2840166185327  45.523263721851414  13.45251973928724  0.8699390312985344  -1.1769206343173781  32.66182100419239  -4.372568881208712  27.31403257487689  0.000000
2.04  0.000000  0.000000  0.000000  -35.14253839266262  2.5507214809047105  1.7807064458424162  45.51264788074161  12.69348254015678  0.5900724277202521  -1.4080051287519568  31.655327704483064  -4.302842421398215  26.898436225635706  0.000000
2.07  0.000000  0.000000  0.000000  -34.784595067657484  2.1353840969444517  1.3662157897898666  45.502529138711196  11.96957918760964  0.31138364811998176  -1.652734760775441  30.67534857309222  -4.224731943276165  26.410009095331723  0.000000
2.1  0.000000  0.000000  0.000000  -34.47578092681422  1.7352267715594298  1.0407251707438692  45.494995737028205  11.286899450076321  0.028721839694597507  -1.906666840640756  29.701715696543065  -4.144802581177609  25.87098187184814  0.000000
2.13  0.000000  0.000000  0.000000  -34.21625410205196  1.3528807656812125  0.7998999753349492  45.490318761736035  10.649521201071389  -0.25933661423541937  -2.1628561661635413  28.716837965158664  -4.058668740471205  25.302138611126068  0.000000
2.16  0.000000  0.000000  0.000000  -34.00246538106224  0.9911804526865766  0.6344647273915314  45.488278410110645  10.06251101148112  -0.5511830118573803  -2.4093628433076857  27.704081227678515  -3.9555280590045987  24.72228382670515  0.000000
2.19  0.000000  0.000000  0.000000  -33.83025765110868  0.6520818369846999  0.5325603766794862  45.48951466169376  9.534712725902509  -0.8411155399251906  -2.632111514261685  26.64553557050788  -3.818141266173885  24.148005180443064  0.000000
2.2199999999999998  0.000000  0.000000  0.000000  -33.69693783825648  0.34062809361508734  0.48454936000671517  45.496904052883295  9.07507508990007  -1.1204453792690372  -2.809635708787065  25.519895587038643  -3.6303042890390875  23.588384042365778  0.000000
2.25  0.000000  0.000000  0.000000  -33.59588199259489  0.061850056337752826  0.48970787234748053  45.51120957762369  8.688856409289263  -1.3890362351271277  -2.9353517185350237  24.30561279410546  -3.3597972702322974  23.04883182646667  0.000000
2.28  0.000000  0.000000  0.000000  -33.519238666732974  -0.18076307378631626  0.5533122835307278  45.53327380195169  8.376135522603798  -1.6540937411105643  -3.024675635270368  22.986212875617337  -2.9596640819603066  22.533618664979365  0.000000
2.31  0.000000  0.000000  0.000000  -33.46088063674045  -0.38283181824185003  0.6791730050149908  45.55954048734866  8.12811849489316  -1.9202025895495534  -3.112409079619854  21.555624514262348  -2.3784590378981116  22.05471875390409  0.000000
2.34  0.000000  0.000000  0.000000  -33.41089787612471  -0.5394996572141242  0.8606344290754282  45.58154694933876  7.932349306756859  -2.188648525619099  -3.244492600664185  20.01953717036853  -1.570112256197854  21.63761590480821  0.000000
2.37  0.000000  0.000000  0.000000  -33.360492018339706  -0.6505465902434738  1.0833542712888922  45.58677692265585  7.7775157446133365  -2.4598286902080613  -3.4723343106340385  18.39429472314261  -0.4954797186393188  21.312496361880005  0.000000
2.4  0.000000  0.000000  0.000000  -33.301964731234904  -0.7192163872518399  1.3287672355627798  45.56040790822035  7.655016938946166  -2.733893512771966  -3.824161564131306  16.700060795560457  0.8555921910468395  21.099466718711362  0.000000
2.4299999999999997  0.000000  0.000000  0.000000  -33.232236393302685  -0.7447919603873855  1.5707952981871693  45.48687767058064  7.5594941424649775  -3.0031127836510296  -4.2638003318901285  14.95488198917814  2.430244052793823  20.997267348711027  0.000000
